{"title":"Salt.2010.R5.Line.CUSTOM.SWESUB.XviD.AC3-Zen_Bud","uid":5799093,"size":1463894314,"categoryP":"video","categoryS":"movies","magnet":"?xt=urn:btih:c0473205303a68b8d0e94e69378af536489f09b5&amp;dn=Salt.2010.R5.Line.CUSTOM.SWESUB.XviD.AC3-Zen_Bud&amp;tr=udp%3A%2F%2Ftracker.openbittorrent.com%3A80&amp;tr=udp%3A%2F%2Fopen.demonii.com%3A1337&amp;tr=udp%3A%2F%2Ftracker.coppersurfer.tk%3A6969&amp;tr=udp%3A%2F%2Fexodus.desync.com%3A6969","seeders":0,"leechers":0,"uploader":"Zen_Bud","files":-1,"time":1283185080,"description":"General\nComplete name                    : Salt.2010.R5.Line.avi\nFormat                           : AVI\nFile size                        : 1.36 GiB\nDuration                         : 1h 35mn\nOverall bit rate                 : 2 046 Kbps\n\nVideo\n\nFormat                           : MPEG-4 Visual\nCodec ID/Hint                    : XviD\nDuration                         : 1h 35mn\nBit rate                         : 1 651 Kbps\nWidth                            : 720 pixels\nHeight                           : 496 pixels\nDisplay aspect ratio             : 2.065\nStream size                      : 1.10 GiB (81%)\nWriting library                  : XviD 1.1.2 (UTC 2006-11-01)\n\nAudio\n\nFormat                           : AC-3\nDuration                         : 1h 35mn\nBit rate                         : 384 Kbps\nChannel(s)                       : 6 channels\nChannel positions                : Front: L C R, Side: L R, LFE\nSampling rate                    : 48.0 KHz\nBit depth                        : 16 bits\nStream size                      : 262 MiB (19%)\n\n\n           *************THX to robin8 &amp; Toya***************\n\n                   -------------Swesub.nu-------------\n","torrent":{"xt":"urn:btih:c0473205303a68b8d0e94e69378af536489f09b5","amp;dn":"Salt.2010.R5.Line.CUSTOM.SWESUB.XviD.AC3-Zen_Bud","amp;tr":["udp%3A%2F%2Ftracker.openbittorrent.com%3A80","udp%3A%2F%2Fopen.demonii.com%3A1337","udp%3A%2F%2Ftracker.coppersurfer.tk%3A6969","udp%3A%2F%2Fexodus.desync.com%3A6969"],"infoHash":"c0473205303a68b8d0e94e69378af536489f09b5","infoHashBuffer":{"type":"Buffer","data":[192,71,50,5,48,58,104,184,208,233,78,105,55,138,245,54,72,159,9,181]},"announce":[],"urlList":[]}}